<svg width="108" height="80" xmlns="http://www.w3.org/2000/svg"><g fill="#0C0E0E" fill-rule="evenodd"><path d="M71.164 16.816l1.244-1.447c-.998-.666-2.076-1.385-3.189-2.043-.545-.333-.939-.636-.618-1.411h13.404v13.412c-.664.278-1.051.038-1.407-.582-.665-1.134-1.391-2.215-2.15-3.403l-1.331 1.454c5.076 7.164 6.8 15.104 4.839 23.716-1.604 7.041-5.443 12.696-11.316 16.883-11.805 8.396-28.115 6.731-37.723-3.773-9.983-10.908-10.387-27.108-.978-38.264 9.824-11.63 26.995-13.626 39.224-4.56v.018zm-38.178 28.41c1.558 7.7 9.626 16.969 22.186 16.384 9.23-.437 19.302-8.765 19.658-16.385H32.986zm0-10.562H74.88c-1.427-7.155-8.63-15.973-20.114-16.386-11.788-.425-19.967 8.157-21.77 16.375l-.009.01zm13.733 8.25a19.59 19.59 0 002.166-.506 2.582 2.582 0 001.721-2.389 2.558 2.558 0 00-1.646-2.44 5.344 5.344 0 00-4.547.093 2.545 2.545 0 00-1.443 2.296c0 .972.561 1.871 1.443 2.295.75.268 1.52.486 2.302.641l.002-.01.002.02zm23.859.01c.814-.146 1.618-.35 2.404-.609a2.556 2.556 0 00.127-4.632 5.252 5.252 0 00-4.879.03 2.53 2.53 0 00.04 4.488c.753.29 1.524.527 2.308.714l.002-.011-.002.02zm-7.933-4.93c-.301-.331-.463-.704-.64-.714a72.972 72.972 0 00-4.511 0c-.154 0-.301.268-.451.423.145.115.301.363.425.331.777-.134 1.026.393 1.307.931.33.633.787 1.222 1.016 1.894.507 1.49 1.482 1.97 2.996 1.768.612-.082 1.025-.176 1.306-.78.373-.824.85-1.602 1.275-2.408.414-.807.694-1.742 2.063-1.51-.177-.357-.363-.667-.56-.667-1.057-.049-2.114-.025-3.172-.025l-.156.33 1.027.745-1.67 3.06-1.804-3.277 1.518-.114.03.012zm-23.63 3.41l-1.787-3.266 1.222-.145.14-.275c-.221-.155-.442-.438-.663-.445-1.413-.041-2.825 0-4.235-.02-.623 0-.666.278-.432.818.914-.236 1.353.289 1.686 1.044.266.6.726 1.123.923 1.736.502 1.572 1.57 1.953 3.084 1.787.613-.066.965-.213 1.236-.768.507-1.044 1.108-2.036 1.637-3.07.249-.486.507-.813 1.13-.773.187 0 .404-.335.6-.511l-.176-.266H40.2a.545.545 0 00-.404.332c0 .134.176.33.331.424.207.082.426.134.643.155l-1.732 3.235-.02.009h-.002zm19.304-1.395c-.332.186-.643.238-.754.414-.83 1.375-1.182 1.551-2.847 1.251v-3.526c.135-.014.268-.04.399-.087.256-.13.502-.283.752-.425-.262-.13-.523-.361-.792-.367-1.192-.041-2.382 0-3.575-.02-.622 0-.665.279-.456.762l1.055.121v3.619c-.262-.01-.524.01-.781.06-.156.058-.363.27-.353.404a.525.525 0 00.373.373c2.312.022 4.614 0 6.988 0l-.02-2.593.01.014z"/><path d="M48.127 39.842c-.017 1.278-.56 2.092-1.315 2.113-.756.02-1.365-.827-1.331-2.016 0-.186.018-.372.056-.559.163-.703.442-1.344 1.297-1.322.856.02 1.08.62 1.225 1.302.032.165.053.33.068.496v-.014zm21.27.256c0-1.308.545-2.109 1.368-2.08.821.03 1.35.926 1.272 2.078a3.43 3.43 0 01-.088.551c-.156.666-.454 1.298-1.245 1.292-.793-.008-1.136-.666-1.262-1.379a3.52 3.52 0 01-.051-.462h.006z"/></g></svg>