<svg width="108" height="80" xmlns="http://www.w3.org/2000/svg"><path d="M28.618 18c.315.027.637.062.956.086 1.93.135 3.828.531 5.641 1.176 2.113.737 4.037 1.9 5.643 3.418 2.647 2.548 4.132 6.01 4.12 9.615-.04 3.649-1.263 6.873-3.86 9.564-1.955 2.026-4.39 3.324-7.088 4.185-1.671.514-3.402.874-5.154 1.07-2.881.353-5.765.313-8.647.292-1.11 0-2.21-.02-3.32-.05-.947-.03-1.905-.09-2.851-.15a.417.417 0 01-.428-.322.42.42 0 01.244-.492c2.2-1.207 3.555-3.117 4.532-5.268.917-2.02 1.73-4.08 2.566-6.121.867-2.131 1.681-4.273 2.568-6.394a16.223 16.223 0 012.668-4.433 8.733 8.733 0 015.112-2.895c.285-.04.57-.06.856-.05.133-.01.255.06.295.17a.243.243 0 01-.112.312c-.356.312-.713.593-1.049.905a11.565 11.565 0 00-2.424 3.267 52.971 52.971 0 00-2.424 5.7c-1.049 2.673-2.087 5.347-3.178 8.012a16.757 16.757 0 01-2.739 4.593c-.397.462-.865.864-1.294 1.296-.06.07-.163.12-.204.191-.04.08-.152.272-.122.373.072.12.194.2.336.23.317.05.643.08.966.08 1.63.02 3.26.07 4.89.03 2.518-.03 5.012-.499 7.37-1.386 3.136-1.206 5.55-3.187 7.068-6.121a13.646 13.646 0 001.44-4.886c.266-2.191.051-4.423-.61-6.534-1.324-4.062-4.191-6.584-8.423-7.71a19.07 19.07 0 00-6.57-.525c-1.99.13-3.937.61-5.742 1.418-2.667 1.236-4.595 3.146-5.589 5.85a7.89 7.89 0 00-.203 5.012c.03.12.102.25-.04.348a.42.42 0 01-.46 0 .78.78 0 01-.227-.221 6.114 6.114 0 01-1.081-2.966c0-.08-.037-.16-.05-.24V27.25c.05-.296.086-.593.153-.889a8.079 8.079 0 012.287-3.87 13.89 13.89 0 015.403-3.25 21.3 21.3 0 015.605-1.107l.999-.09 2.211.02-.04-.065zm66.604 13.963c-.04.155-.079.31-.122.468a5.454 5.454 0 01-1.65 2.487 13.217 13.217 0 01-4.8 2.683 25.434 25.434 0 01-5.632 1.199l-.193.02c-.51.05-.52.05-.621.523a10.537 10.537 0 00-.235 3.87c.086.816.471 1.57 1.08 2.12.723.604 1.599.725 2.525.655 1.976-.151 3.606-1.006 4.99-2.293.673-.623 1.253-1.326 1.875-2a.493.493 0 01.631-.11c.184.13.214.371.082.543v.01c-1.74 2.773-4.176 4.593-7.547 5.136a7.95 7.95 0 01-4.278-.392c-1.506-.593-2.597-1.89-2.881-3.438a9.16 9.16 0 01.182-4.573c1.08-3.931 3.362-7.047 7.007-9.168a9.84 9.84 0 015.073-1.367 6.875 6.875 0 012.627.432c1.019.342 1.762 1.216 1.915 2.24.01.032.02.062.04.092l-.01.804-.058.059zm-12.61 5.96c.03.01.064.02.097.026h.132a15.91 15.91 0 004.815-1.314 9.375 9.375 0 003.602-2.689 4.183 4.183 0 00.98-2.974c-.081-1.067-.748-1.68-1.853-1.68-.479.01-.953.101-1.393.282a7.56 7.56 0 00-2.68 1.89 15.43 15.43 0 00-3.082 4.845c-.226.533-.42 1.085-.63 1.638h.012v-.024zm-37.95 16.099c.28.02.566.062.845.052.514 0 1.029-.032 1.538-.094 2.521-.374 4.776-1.364 6.952-2.578a8.307 8.307 0 012.561-1.04 4.199 4.199 0 012.842.352c.835.422 1.334 1.266 1.283 2.17a3.197 3.197 0 01-.733 1.9c-.061.091-.122.181-.163.272a.21.21 0 000 .191c.06.05.132.06.203.04.133-.03.255-.09.367-.17.366-.302.744-.594 1.08-.935a7.86 7.86 0 012.159-1.649 2.924 2.924 0 013.198.321l.723.534c.173.13.163.21-.05.27-.83.26-1.535.82-1.977 1.57-.652 1.074-1.293 2.17-1.986 3.226a9.811 9.811 0 01-4.104 3.588 9.978 9.978 0 01-3.076.835c-2.23.23-4.329-.272-6.315-1.156a46.918 46.918 0 01-8.932-5.268c-.06-.04-.091-.13-.122-.2a.763.763 0 01.214 0c1.418.388 2.865.657 4.328.804.928.1 1.844.19 2.781.25.825.05 1.65.09 2.465.08a9.106 9.106 0 002.607-.34c.153-.05.306-.11.448-.181.061-.03.092-.11.132-.18a2.956 2.956 0 00-.193-.123.763.763 0 00-.214 0c-1.833.293-3.605-.02-5.307-.592a11.971 11.971 0 01-3.31-1.638 1.408 1.408 0 01-.22-.232l.04-.04-.064-.04zm6.665-6.632a6.909 6.909 0 01-3.07-.694c-1.496-.747-2.556-2.115-2.88-3.712a9.233 9.233 0 01.09-4.503c.907-3.56 2.882-6.414 6.101-8.425a10.957 10.957 0 016.263-1.678 6.694 6.694 0 013.606 1.045 5.361 5.361 0 012.28 3.468 9.763 9.763 0 01-.213 4.785c-.866 3.397-3.086 6.322-6.182 8.143a11.17 11.17 0 01-5.978 1.587l-.017-.017zm6.035-18.119c-.424.068-.844.158-1.257.27a7.413 7.413 0 00-3.208 2.168c-2.664 2.852-4.11 6.57-4.048 10.407-.02.9.152 1.794.488 2.633.428.996 1.172 1.616 2.322 1.693.75.041 1.497-.11 2.17-.442a7.495 7.495 0 002.505-1.9c2.659-2.976 4.074-6.786 4.002-10.696a5.858 5.858 0 00-.55-2.554c-.386-.945-1.344-1.568-2.403-1.568v.01l-.021-.02v-.001zm12.52 7.278c-.118 1.869-.238 3.737-.36 5.606-.03.437-.083.874-.09 1.31 0 .621.27.791.818.465.371-.228.71-.5 1.007-.812a26.044 26.044 0 006.036-9.685 15.04 15.04 0 00.81-3.468c.01-.296.004-.59-.02-.885 0-.07 0-.167.044-.205.342-.311.821-.44 1.282-.347.433.09.734.466.72.891a6.874 6.874 0 01-.33 2.003 25.75 25.75 0 01-3.026 6.553 33.177 33.177 0 01-6.559 7.63 9.696 9.696 0 01-2.159 1.438 2.5 2.5 0 01-1.314.27c-.418-.01-.764-.3-.815-.692a6.368 6.368 0 01-.102-1.388c.072-1.437.204-2.874.296-4.322.06-1.096.132-2.191.152-3.288.01-1.095 0-2.14-.06-3.206a11.459 11.459 0 00-.703-3.7 3.248 3.248 0 00-1.08-1.497c-.173-.13-.153-.291.071-.352.305-.08.622-.12.927-.13a3.914 3.914 0 012.811.995 4.23 4.23 0 011.212 2.322c.204 1.085.316 2.18.316 3.287v1.166l.08-.02.036.061z" fill="#111515" fill-rule="evenodd"/></svg>