<svg width="108" height="80" xmlns="http://www.w3.org/2000/svg"><path d="M14.365 35.038h12.107c.13.648.19 1.427.19 2.265 0 2.704-.756 6.07-3.126 8.451-2.32 2.41-5.26 3.705-9.193 3.705C7.083 49.459 1 43.51 1 36.228 1.017 28.93 7.104 23 14.358 23c4.006 0 6.873 1.588 9.009 3.67l-2.531 2.542c-1.537-1.452-3.627-2.585-6.479-2.585-5.294 0-9.428 4.292-9.428 9.61 0 5.322 4.135 9.613 9.428 9.613 3.426 0 5.385-1.381 6.639-2.646 1.026-1.043 1.698-2.528 1.964-4.557h-8.597v-3.615l.003.006zm23.04-2.939c4.694 0 8.526 3.586 8.526 8.539 0 4.916-3.833 8.532-8.524 8.532-4.697 0-8.523-3.633-8.523-8.548 0-4.951 3.826-8.551 8.533-8.551l-.015.027h.004l-.001.001zm0 13.712c2.576 0 4.797-2.129 4.797-5.169 0-3.076-2.221-5.171-4.795-5.171-2.573 0-4.797 2.112-4.797 5.171 0 3.04 2.217 5.17 4.786 5.17h.01-.001zM79.19 34.018v-1.47h3.54v15.359c0 6.316-3.698 8.901-8.066 8.901-4.119 0-6.59-2.773-7.529-5.037l3.243-1.35c.588 1.401 2.016 3.04 4.286 3.04 2.789 0 4.537-1.74 4.537-5v-1.185h-.135c-.824 1.03-2.437 1.942-4.47 1.942-4.235 0-7.933-3.75-7.933-8.548 0-4.818 3.715-8.538 7.95-8.538 2.033 0 3.646.913 4.47 1.91h.134l-.03-.024h.003zM74.91 45.81c2.54 0 4.545-2.145 4.53-5.136 0-2.99-1.99-5.203-4.53-5.203-2.573 0-4.535 2.162-4.535 5.17 0 2.973 1.96 5.17 4.533 5.17h.001zM56.41 32.108c4.692 0 8.524 3.6 8.524 8.55 0 4.917-3.832 8.533-8.524 8.533-4.693 0-8.523-3.633-8.523-8.532 0-4.95 3.832-8.534 8.523-8.534v-.017zm0 13.721c2.573 0 4.796-2.129 4.796-5.171 0-3.075-2.222-5.17-4.796-5.17-2.57 0-4.794 2.108-4.794 5.165 0 3.042 2.218 5.17 4.79 5.17h.005v.006zm29.242 3.379V23.356h3.666V49.19h-3.668l.002.018zm14.998-3.361c1.898 0 3.216-.931 4.18-2.351l2.896 1.943c-.935 1.387-3.187 3.784-7.075 3.784-4.823 0-8.42-3.75-8.42-8.537 0-5.086 3.638-8.538 8.01-8.538 4.4 0 6.564 3.531 7.265 5.44l.38.97-11.361 4.718c.88 1.723 2.223 2.585 4.123 2.585v-.016l.002.002zm-.263-10.51c-1.932 0-4.459 1.486-4.459 5.068l7.674-3.194c-.423-1.102-1.709-1.879-3.215-1.879v.004z" fill="#111515" fill-rule="nonzero"/></svg>