<svg width="199" height="59" xmlns="http://www.w3.org/2000/svg" xmlns:xlink="http://www.w3.org/1999/xlink"><defs><circle id="a" cx="29.52" cy="29.5" r="29.5"/></defs><g fill="none" fill-rule="evenodd"><g><circle fill="#FFF" cx="29.5" cy="29.5" r="29.5"/><g stroke="#111515" stroke-linecap="round" stroke-linejoin="round" stroke-width="1.6"><path d="M30.012 18a3.005 3.005 0 00-3.005 3.005v8.014a3.005 3.005 0 006.01 0v-8.014A3.005 3.005 0 0030.012 18z"/><path d="M37.024 27.015v2.004a7.012 7.012 0 01-14.024 0v-2.004M30.012 36.031v4.006M26.005 40.037h8.014"/></g></g><g transform="translate(69)"><circle fill="#FFF" cx="30.48" cy="29.5" r="29.5"/><g stroke="#111515" stroke-linecap="round" stroke-linejoin="round" stroke-width="1.6"><path d="M35.005 33.025v1.002a2.003 2.003 0 01-2.003 2.004H21.983a2.003 2.003 0 01-2.003-2.004V24.01c0-1.106.897-2.003 2.003-2.003h2.004m5.67 0h3.345c1.107 0 2.003.897 2.003 2.003v3.346l1.002 1.002 6.01-4.348v10.017M19.98 18l22.037 22.037"/></g></g><g transform="translate(139)"><use fill="#5F6263" xlink:href="#a"/><use fill="#FF554C" xlink:href="#a"/></g><path d="M173.484 24.474c-1.438-.154-6.376-.595-10.424.08-2.742.47-4.463 1.319-4.708 1.45-.832.34-1.38.774-1.777 1.171-.435.435-.642.794-.68.907-.472.851-.603 1.816-.715 2.724-.131 1.116-.13 2.1-.053 3.008.058.548.266.946.702 1.193h.075c.947.38 4.427.12 4.465.12.511-.057 1.04-.094 1.57-.207.246-.056.549-.131.794-.301.549-.397.51-1.002.49-1.4v-.151c0-.227-.02-.51-.039-.795-.038-.492-.115-1.476-.02-1.684.188-.264 1.569-.622 2.363-.696 2.383-.224 4.692-.221 5.903.008h.038c1.892.343 2.308.608 2.365.703.114.227.04 1.21.003 1.703-.019.283-.037.567-.037.794v.152c-.018.397-.036 1.021.513 1.42.246.17.53.265.795.303.53.114 1.078.172 1.57.21.038-.038 3.52.232 4.465-.145l.076-.038c.397-.245.642-.642.698-1.19a14.78 14.78 0 00-.06-3.009c-.097-.927-.25-1.873-.723-2.725-.095-.209-.721-1.326-2.444-2.066-.303-.152-2.196-1.214-5.205-1.54zm6.684 4.076l.02.057c.379.682.512 1.533.589 2.328.115 1.06.116 1.968.042 2.8-.02.17-.057.284-.095.321l-.018.02c-.53.15-2.687.11-3.936-.006-.492-.038-.983-.077-1.438-.191-.151-.038-.284-.057-.378-.114-.076-.038-.076-.227-.058-.511v-.19c0-.188.018-.434.037-.718.093-1.04.111-1.816-.117-2.27-.284-.55-1.155-.891-3.123-1.234h-.038c-1.57-.286-4.313-.195-6.205-.009-.038 0-2.705.28-3.215 1.244-.245.473-.206 1.23-.11 2.27.02.284.039.53.039.72v.189c0 .265 0 .454-.056.51a1.108 1.108 0 01-.378.113c-.473.094-.946.15-1.438.188-1.267.093-3.424.127-3.954-.025-.057-.056-.132-.132-.133-.36h0c-.077-.832-.059-1.759.034-2.8.094-.813.206-1.645.584-2.325l.018-.02c.02-.056.453-.945 1.928-1.548l.057-.019c.019-.019 1.701-.906 4.406-1.337 3.896-.638 8.74-.215 10.14-.062 2.952.307 4.789 1.387 4.808 1.406l.075.038c1.458.589 1.913 1.498 1.913 1.535z" stroke="#FFF" stroke-width=".55" fill="#FFF" fill-rule="nonzero"/></g></svg>