<svg width="108" height="80" xmlns="http://www.w3.org/2000/svg"><path d="M36.55 29.851l5.758 11.447 5.313-11.447h5.556l-13.545 28.52h-5.515l5.434-11.369-8.8-17.151h5.799zm26.006-.983c2.533 0 5.307.981 6.594 2.004l-2.453 3.844c-1.005-.736-2.332-1.35-3.74-1.35-1.447 0-2.653.573-2.653 1.595 0 2.577 9.448 1.554 9.448 8.425 0 3.803-3.658 6.134-7.76 6.134-2.693 0-5.548-.94-7.84-2.658l2.533-3.804c1.327 1.227 3.377 1.964 5.348 1.964 1.407 0 2.493-.696 2.493-1.677 0-2.986-9.45-1.922-9.45-8.302 0-3.803 3.62-6.175 7.48-6.175zm18.506-3.934v5.268h6.241v4.293h-6.24v7.22c0 1.17.195 1.873.624 2.38.507.586 1.326.937 2.574.937.74 0 1.716-.117 2.067-.195l.78 4.293c-.663.233-2.184.39-3.159.39-3.042 0-5.265-1.015-6.553-2.732-.974-1.288-1.404-2.966-1.404-5.659v-6.634h-5.265v-4.293h5.265v-5.268h5.07zM25.892 21v20.596c0 1.188.189 1.901.603 2.416.489.595 1.28.951 2.483.951.716 0 1.656-.118 1.995-.198l.753 4.359c-.64.237-2.108.396-3.049.396-2.935 0-5.08-1.03-6.322-2.774C21.414 45.44 21 43.736 21 41.001V21h4.892z" fill="#111515" fill-rule="nonzero"/></svg>