<svg width="108" height="80" xmlns="http://www.w3.org/2000/svg"><g fill="#111515" fill-rule="nonzero" stroke="#111515"><path d="M54.159 75.261c-19.349 0-35.103-15.74-35.103-35.102 0-19.363 15.754-35.103 35.103-35.103 19.348 0 35.102 15.754 35.102 35.103 0 19.348-15.754 35.102-35.102 35.102m0-69.32c-18.871 0-34.218 15.347-34.218 34.218 0 18.857 15.347 34.204 34.218 34.204 18.857 0 34.204-15.347 34.204-34.204 0-18.871-15.347-34.218-34.204-34.218" stroke-width="1.8"/><path d="M54.145 18.1c12.16 0 22.044 9.885 22.044 22.045 0 12.16-9.885 22.044-22.044 22.044-12.16 0-22.045-9.885-22.045-22.044C32.1 27.985 42 18.1 54.145 18.1m0-.884c-12.665 0-22.93 10.264-22.93 22.929S41.48 63.088 54.16 63.088c12.665 0 22.943-10.264 22.943-22.943-.014-12.665-10.278-22.93-22.957-22.93" stroke-width="1.8"/><path d="M52.886 66.12l1.04.014s-.057 3.623-.057 3.778c.57 0 1.567-.028 2.322-.085.014.297.057.934.057.934-1.126.085-2.436.1-3.447.071l.085-4.712zm7.563-.722s.171.764.2.906c-.527.127-1.724.382-2.407.467l.142.948c.67-.1 1.41-.24 2.18-.425l.199.906c-.599.156-1.51.311-2.222.425l.142.976c.883-.142 1.68-.297 2.62-.524l.2.906c-1.225.297-2.421.481-3.703.665l-.74-4.655a32.318 32.318 0 003.39-.595zm-12.605.014c.84.184 1.567.312 2.037.397.541.07.94.283 1.168.594.185.24.256.523.213.849v.014c-.07.524-.384.835-.769.92.513.283.812.65.712 1.273v.015c-.128.849-.883 1.188-1.95 1.033a42.651 42.651 0 01-2.337-.467l.926-4.628zm.47 2.915c-.028.156-.17.892-.2 1.005.286.085.684.156 1.283.255.455.07.755-.057.811-.396v-.015c.043-.31-.185-.537-.683-.622a15.3 15.3 0 01-1.21-.227zm-6.153-4.995l1.026.481.441 2.307 1.78-1.43 1.055.354-1.624 4.415-.969-.31 1.054-2.888-1.98 1.373h-.014l-.484-2.335-1.21 2.802-.94-.425 1.865-4.344zm24.64 2.363v.015c.485 1.245-.1 2.575-1.495 3.113-.783.31-1.296.467-1.809.622l-1.58-4.443 1.68-.594c1.396-.538 2.72.042 3.205 1.287zm-2.848-.41s-.47.184-.698.255c.057.155.969 2.688.969 2.688s.384-.141.754-.297c.755-.311 1.126-1.047.827-1.825v-.014c-.3-.779-1.054-1.118-1.852-.807zm-15.297 1.217c-.028.127-.17.877-.2.976.285.085.5.114.94.198.442.071.77-.042.812-.382v-.014c.043-.311-.142-.51-.598-.594-.456-.085-.812-.156-.954-.184zm-8.674-4.4l.897.537-2.435 4.047-.898-.538 2.436-4.047zm32.075.339v.014c.74 1.118.442 2.618-.783 3.41-1.188.76-2.598.48-3.352-.542l-.095-.137c-.74-1.132-.441-2.632.783-3.424 1.225-.793 2.707-.453 3.447.679zm-2.934.127c-.712.453-.84 1.316-.399 2.01l.015.014c.441.679 1.31.92 2.022.467.654-.425.808-1.21.46-1.878l-.075-.132c-.456-.693-1.325-.934-2.023-.48zm-35.322-5.787l.783.877-1.524 2.986 2.905-1.6.656.595-1.268 3.014 2.763-1.797.94.665-4.4 2.604-.727-.595 1.225-2.957-2.82 1.528-.67-.65 2.137-4.67zm40.507.113l3.446 3.24-.584.665-3.802-.467 2.08 2.18-.756.679-3.276-3.41.712-.637 3.618.51-2.122-1.996.684-.764zm10.796-21.145a2.74 2.74 0 01-.342 1.826l-.855-.425c.228-.453.342-.891.285-1.287-.057-.397-.27-.58-.498-.538h-.014c-.314.042-.385.255-.47 1.104-.114.99-.37 1.57-1.197 1.684H82c-.94.127-1.567-.496-1.71-1.5-.099-.708.043-1.458.47-2.095l.813.496c-.285.467-.442.948-.37 1.485.056.425.27.651.54.609h.015c.256-.043.37-.212.455-1.033.1-.976.271-1.627 1.211-1.755h.014c.855-.127 1.524.481 1.667 1.43zM23.46 34.122l.954.17c-.085.439-.227 1.09-.256 1.4.171.03 3.746.539 3.746.539l-.157 1.033s-3.432-.496-3.746-.538c-.07.396-.128.891-.156 1.4l-.955-.098c.114-1.316.3-2.66.57-3.906zm1.809-5.632l4.43 1.67-.4.962-1.78-.665-.626 1.783 1.823.58-.285.99-4.53-1.443.286-.99 1.794.566.641-1.825-1.752-.665.399-.963zm57.77.24l.37.949.327.891c.414 1.147-.07 1.939-.94 2.25h-.014c-1.04.368-1.823-.269-2.207-1.245l-.271-.722-1.339.496-.399-.963 4.473-1.655zm-.485 1.303l-1.381.495.299.764c.185.481.555.68.94.538h.014c.442-.156.598-.538.427-1.02l-.299-.777zm-.883-4.16l.485.92-4.245 2.136-.47-.92 4.23-2.137zm-53.553-2.604l.797.48a27.266 27.266 0 00-1.353 2.208l.84.467c.314-.552.713-1.202 1.168-1.924l.798.481c-.399.623-.855 1.316-1.154 1.91l.87.481c.255-.48.896-1.514 1.324-2.15l.797.467a30.207 30.207 0 00-1.809 3.014l-4.144-2.293c.427-.806 1.239-2.165 1.866-3.141zm49.993-2.59l.655.793-1.482 1.146 1.154 1.57 1.538-1.075.584.877-3.902 2.689-.57-.863 1.567-1.09-1.125-1.514-1.51 1.146-.67-.792 3.76-2.887zm-44.083-3.17l.072 1.005c-.499.029-.898.142-1.24.481-.57.566-.498 1.444.086 2.01l.014.014c.584.566 1.453.65 2.023.07.384-.381.455-.763.484-1.273h.94c.028.708-.128 1.316-.77 1.967-.926.947-2.334.963-3.302.133l-.13-.119c-.968-.948-1.04-2.448-.014-3.48.627-.638 1.225-.807 1.837-.807zm41.29.17c.528.453.827.99.94 1.6l-.925.24c-.128-.495-.327-.892-.627-1.146-.299-.255-.584-.255-.726-.085l-.014.014c-.2.24-.114.439.37 1.132.57.82.755 1.43.214 2.052l-.014.014c-.613.708-1.51.637-2.28-.028a2.908 2.908 0 01-1.04-1.868l.955-.156c.1.538.285 1.005.698 1.359.328.283.627.31.812.099l.014-.014c.171-.199.143-.41-.327-1.076-.57-.806-.855-1.4-.243-2.122v-.015c.57-.65 1.467-.636 2.194 0zM38.7 13.576l2.493 4.004-.912.524-.997-1.613-1.68 1.103 1.096 1.543-.826.622-2.735-3.863.84-.608 1.083 1.528 1.71-1.132-.983-1.585.911-.523zm29.825-.524l.84.453.428 3.65 1.58-2.433.855.58-2.578 3.948-.74-.495-.342-3.722-1.51 2.59-.897-.495 2.364-4.076zm-25.609-1.429l3.732 3.707-1.068.34-.798-.82-1.852.778v1.09l-.982.466.07-5.207.898-.354zm21.62-.382c1.382.481 2.01 1.854 1.553 3.127v.014c-.455 1.26-1.823 1.939-3.204 1.458-1.324-.475-1.955-1.755-1.604-2.97l.051-.157c.456-1.274 1.823-1.953 3.205-1.472zm-12.875-1.57l.598 4.669-1.04.085-.384-3.057-1.082 2.236h-.029l-1.709-1.769.598 3-1.011.24-.912-4.626 1.111-.255 1.681 1.769 1.054-2.208 1.125-.085zm10.697 3.367v.014c-.27.764.071 1.6.854 1.882.751.267 1.476-.106 1.785-.776l.053-.13c.27-.778-.057-1.613-.855-1.896-.798-.283-1.567.156-1.837.906zm-3.034-3.042l1.025.198-.868 4.627-1.026-.184.869-4.641zm-16.408 2.957l-.014 1.656 1.182-.467-1.168-1.189zM53.77 9.571l1.026.014.954.029c1.225.056 1.78.792 1.738 1.712v.014c-.043 1.09-.926 1.585-1.994 1.557l-.784-.029-.042 1.415h-1.04l.142-4.712zm1.04.934l-.057 1.458.826.014c.527.014.84-.27.855-.665v-.014c.014-.467-.271-.75-.798-.779l-.826-.014z" stroke-width=".1"/><path d="M54.159 56.067a1.921 1.921 0 011.348.576c-.38.295-.843.477-1.348.477a2.13 2.13 0 01-1.348-.477 1.889 1.889 0 011.348-.576zm1.769-2.345c.239.351.407.787.407 1.25 0 .463-.154.899-.407 1.25a2.428 2.428 0 00-1.755-.744c-.688 0-1.306.28-1.755.744a2.144 2.144 0 01-.407-1.25c0-.463.154-.899.407-1.25.449.464 1.067.745 1.755.745s1.306-.281 1.755-.745zm-1.77-.912c.506 0 .97.182 1.335.477-.337.351-.8.576-1.334.576-.52 0-.997-.225-1.348-.576.379-.295.842-.477 1.348-.477zm-7.385-1.517c-.463.45-.927.899-1.362 1.306-.126.113-.253.239-.379.351-.35.323-.604.52-1.32-.21-.73-.717-.533-.97-.21-1.32a.454.454 0 01.075-.085l.051-.042h3.145zm16.372-1.614c.45.463.899.926 1.306 1.362.112.126.239.252.35.379.324.35.52.59-.21 1.32-.716.73-.969.533-1.32.21a.908.908 0 00-.126-.112h0zm-1.881-1.868c.407.407.828.815 1.235 1.222h0v3.201c-.407-.393-.814-.8-1.235-1.207h0zm-12.637 1.6l-.611.619h0l-.61.617h-3.188l.79-.818.403-.417h3.216zm10.77-3.397c.392.365.813.772 1.235 1.18h0v3.187c-.422-.422-.843-.843-1.236-1.25h0zm-8.96 1.516c-.273.295-.57.606-.874.92l-.305.316h-3.187l.625-.618h0l.625-.618h3.117zm7.64-2.653c.084 0 .168.056.294.168.112.112.126.112.239.225h0l.056.056c.028.028.056.042.084.084h0v3.061c-.561-.576-1.08-1.137-1.558-1.629h0l-.056-.056c-.113-.126-.127-.154-.24-.267-.112-.126-.168-.21-.168-.294h0zm-7.836 0l1.348 1.348c0 .098-.07.168-.182.294-.084.085-.106.114-.158.17l-.067.07-.056.055-.04.042h0l-.03.043h-3.061c.46-.45.912-.881 1.326-1.273l.303-.286.056-.056c.126-.113.154-.127.266-.239.127-.112.211-.168.295-.168zm5.659-2.064l1.685 1.656-1.264 1.264-1.727-1.77.169-.168c.407-.393.772-.716 1.137-.982h0zm12.286-14.561c2.134 2.12 2.948 5.953-.562 9.843-2.541 2.808-4.9 3.327-7.4 3.13a12.015 12.015 0 00-1.39-.041c-1.791.134-2.896.586-4.319 1.95l-.216.212-2.303 2.373-1.263-1.264 2.373-2.316c1.53-1.545 2.008-2.654 2.148-4.536.014-.42 0-.87-.042-1.39-.197-2.499.323-4.872 3.131-7.4 3.89-3.51 7.709-2.695 9.843-.561zm-28.068.014c2.12-2.134 5.953-2.949 9.843.562 2.808 2.541 3.327 4.914 3.13 7.4-.041.505-.055.968-.041 1.39.084 1.08.28 1.923.73 2.723-.281.436-.646.87-1.138 1.348h0l-.309.31c-.842-.506-1.713-.717-2.864-.801-.421-.014-.87 0-1.39.042-2.5.197-4.872-.323-7.4-3.131-3.51-3.89-2.695-7.709-.561-9.843zm9.618 1.587c-3.258-3.117-6.67-3.244-8.958-.941-2.303 2.303-2.19 5.7.94 8.958 1.798 1.882 3.68 2.513 5.884 2.317.828-.07 2.05-.337 3.075-1.362 1.025-1.025 1.291-2.247 1.362-3.075.196-2.205-.436-4.086-2.303-5.897zm8.846 0c-1.882 1.811-2.514 3.692-2.317 5.897.07.828.337 2.05 1.362 3.075 1.025 1.025 2.247 1.292 3.075 1.362 2.204.196 4.086-.435 5.897-2.317 3.117-3.257 3.244-6.67.94-8.958-2.302-2.289-5.7-2.176-8.957.94zm-14.027-2.177c.112.014.238.014.35.028h0V28.8h1.573v-.717c.113.057.239.099.351.155h0v.562h1.025c.169.112.337.224.506.35h0-1.53v1.573h1.572V29.18c.112.098.239.182.351.28h0v1.278l1.348.014c.225.267.421.52.59.787h0v1.137h.617c.043.112.07.239.113.35h0-.73v1.588h1.025c0 .112.014.224.014.35h0-1.04v1.587h.871c-.028.113-.056.239-.098.351h0-.772l-.014 1.404c-.07.099-.155.183-.253.267a5.062 5.062 0 01-.295.267h0-1.39v.744c-.112.028-.225.07-.351.098h0v-.842h-1.573v.997c-.112 0-.238 0-.35-.014h0v-.983h-1.573v.702c-.113-.042-.239-.098-.351-.14h0v-.562h-1.138a9.966 9.966 0 01-.8-.604h0v-1.334l-1.292-.014c-.084-.112-.182-.224-.267-.337h1.559v-1.586H41.03v1.558c-.126-.168-.238-.35-.35-.52h0v-1.038h-.576a3.816 3.816 0 01-.155-.351h.716v-1.587h-1.109c0-.112-.014-.239-.014-.351h1.123v-1.587h-.884c.042-.112.084-.238.14-.35h.786l.015-1.222a4 4 0 01.322-.365l-.014.014v-.014h.014c.127-.127.253-.24.38-.351h1.207v-.759c.112-.042.239-.084.351-.126h0v.885h1.573zm19.208.014v1.124h1.572v-.885c.075.019.156.044.236.075l.116.051v.745l1.221.014c.126.098.253.21.38.337.083.075.155.156.227.239l.11.126v1.221h.757l.07.176h0l.07.175h-.898v1.587h1.138l-.002.175h0l-.013.176h-1.109v1.587h.702l-.077.175h0l-.077.176h-.576v1.053l-.17.252h0l-.18.253v-1.558h-1.573v1.586h1.558l-.135.176h0l-.146.175h-1.277l-.015 1.348c-.177.14-.355.275-.533.403l-.267.187H63.75v.562l-.351.14v-.702h-1.573v.983l-.17.007h0l-.18.007v-.997h-1.573v.842l-.176-.056h0l-.175-.056v-.73h-1.39c-.099-.07-.183-.169-.281-.253l-.127-.135h0l-.126-.146v-1.39h-.772l-.05-.17h0l-.049-.18h.87v-1.587h-1.038l.002-.176h0l.012-.175h1.025V33.04h-.73l.05-.176h0l.062-.175h.618v-1.151c.112-.178.237-.356.374-.53l.216-.257h1.334l.014-1.277.168-.14h0l.169-.127v1.544h1.572v-1.586h-1.53c.121-.085.237-.163.35-.239l.17-.112h1.024v-.562l.176-.083h0l.175-.071v.716h1.573v-1.096c.112-.014.239-.028.35-.028zM50.34 36.901h-1.573v1.587h1.573V36.9zm13.072 0h-1.573v1.587h1.573V36.9zm1.923 0h-1.572v1.587h1.572V36.9zm-20.794 0h-1.573v1.587h1.573V36.9zm1.923 0h-1.572v1.587h1.572V36.9zm1.938 0h-1.573v1.587h1.573V36.9zm13.072 0h-1.572v1.587h1.572V36.9zm-1.923 0h-1.573v1.587h1.573V36.9zm-13.087-1.937h-1.572v1.586h1.572v-1.586zm3.876 0h-1.573v1.586h1.573v-1.586zm14.995 0h-1.572v1.586h1.572v-1.586zm-5.784 0h-1.573v1.586h1.573v-1.586zm-11.149 0h-1.573v1.586h1.573v-1.586zm-3.861 0h-1.573v1.586h1.573v-1.586zm16.933 0h-1.572v1.586h1.572v-1.586zm1.938 0h-1.573v1.586h1.573v-1.586zm-1.938-1.938h-1.572v1.587h1.572v-1.587zm5.8 0H65.7v1.587h1.572v-1.587zm-22.733 0h-1.573v1.587h1.573v-1.587zm1.923 0h-1.572v1.587h1.572v-1.587zm3.876 0h-1.573v1.587h1.573v-1.587zm-7.737 0H41.03v1.587h1.573v-1.587zm20.809 0h-1.573v1.587h1.573v-1.587zm-3.861 0h-1.573v1.587h1.573v-1.587zm5.784 0h-1.572v1.587h1.572v-1.587zm-16.933 0h-1.573v1.587h1.573v-1.587zm15.01-1.938h-1.573v1.587h1.573v-1.587zm-13.072 0h-1.573v1.587h1.573v-1.587zm-1.938 0h-1.573v1.587h1.573v-1.587zm13.072 0h-1.572v1.587h1.572v-1.587zm5.8 0H65.7v1.587h1.572v-1.587zm-1.939 0h-1.572v1.587h1.572v-1.587zm-18.87 0h-1.573v1.587h1.572v-1.587zm13.086 0h-1.573v1.587h1.573v-1.587zm-16.948 0H41.03v1.587h1.573v-1.587zm1.938 0h-1.573v1.587h1.573v-1.587zm22.732-1.937h-1.572v1.586h1.572v-1.586zm-1.938 0h-1.572v1.586h1.572v-1.586zm-1.923 0h-1.573v1.586h1.573v-1.586zm-20.809 0h-1.56l-.013.014v1.572h1.573v-1.586zm1.938 0h-1.573v1.586h1.573v-1.586zm1.923 0h-1.572v1.586h1.572v-1.586z" stroke-width=".2"/></g></svg>