<?xml version="1.0" encoding="UTF-8"?>
<svg width="300px" height="68px" viewBox="0 0 300 68" version="1.1" xmlns="http://www.w3.org/2000/svg" xmlns:xlink="http://www.w3.org/1999/xlink">
    <!-- Generator: Sketch 64 (93537) - https://sketch.com -->
    <title>Message Copy 6</title>
    <desc>Created with Sketch.</desc>
    <g id="Testimonials" stroke="none" stroke-width="1" fill="none" fill-rule="evenodd">
        <g id="Artboard" transform="translate(-974.000000, -1370.000000)">
            <g id="FAQ" transform="translate(150.000000, 1042.000000)">
                <g id="Group" transform="translate(501.000000, 95.000000)">
                    <g id="Comp">
                        <g id="Message-Copy-6" transform="translate(323.000000, 233.000000)">
                            <g id="Message" transform="translate(86.000000, 3.000000)">
                                <rect id="Rectangle" fill="#FFFFFF" x="0" y="0" width="214" height="62" rx="7"></rect>
                                <path d="M22.664,37 L22.664,31.06 L30.008,31.06 L30.008,37 L31.196,37 L31.196,24.4 L30.008,24.4 L30.008,29.926 L22.664,29.926 L22.664,24.4 L21.476,24.4 L21.476,37 L22.664,37 Z M37.604,37.198 C39.62,37.198 41.006,36.19 41.564,34.444 L40.394,34.444 C39.962,35.578 39.044,36.136 37.622,36.136 C35.876,36.136 34.58,34.876 34.49,32.914 L41.672,32.914 L41.672,32.284 C41.672,29.404 40.034,27.766 37.568,27.766 C36.29,27.766 35.264,28.216 34.49,29.098 C33.716,29.98 33.338,31.114 33.338,32.5 C33.338,33.904 33.734,35.038 34.526,35.902 C35.336,36.766 36.362,37.198 37.604,37.198 Z M40.52,31.888 L34.49,31.888 C34.634,30.088 35.84,28.828 37.568,28.828 C39.368,28.828 40.52,29.998 40.52,31.888 Z M46.046,40.87 L51.14,27.964 L49.916,27.964 L47.216,34.966 L47.018,35.596 L46.838,34.966 L44.12,27.964 L42.914,27.964 L46.424,36.856 L44.84,40.87 L46.046,40.87 Z M62.246,37.234 C64.028,37.234 65.432,36.712 66.422,35.686 C67.412,34.66 67.916,33.238 67.916,31.438 L67.916,30.718 L62.498,30.718 L62.498,31.852 L66.674,31.852 C66.656,34.714 64.928,36.118 62.246,36.118 C60.788,36.118 59.6,35.614 58.664,34.588 C57.746,33.562 57.278,32.266 57.278,30.7 C57.278,29.134 57.746,27.856 58.664,26.83 C59.6,25.804 60.788,25.282 62.228,25.282 C64.388,25.282 65.81,26.308 66.386,27.964 L67.718,27.964 C66.998,25.588 65.018,24.166 62.228,24.166 C60.428,24.166 58.952,24.796 57.782,26.038 C56.612,27.28 56.036,28.828 56.036,30.7 C56.036,32.572 56.612,34.138 57.782,35.38 C58.952,36.622 60.428,37.234 62.246,37.234 Z M73.91,37.198 C75.242,37.198 76.322,36.748 77.15,35.866 C77.978,34.984 78.392,33.85 78.392,32.482 C78.392,31.114 77.978,29.98 77.15,29.098 C76.322,28.216 75.242,27.766 73.91,27.766 C72.578,27.766 71.498,28.216 70.652,29.098 C69.824,29.98 69.41,31.114 69.41,32.482 C69.41,33.85 69.824,34.984 70.652,35.866 C71.498,36.748 72.578,37.198 73.91,37.198 Z M73.928,36.136 C72.92,36.136 72.11,35.794 71.48,35.11 C70.868,34.408 70.562,33.544 70.562,32.482 C70.562,31.42 70.868,30.556 71.48,29.872 C72.11,29.17 72.92,28.828 73.928,28.828 C74.918,28.828 75.728,29.17 76.322,29.872 C76.934,30.556 77.24,31.42 77.24,32.482 C77.24,33.544 76.934,34.408 76.322,35.11 C75.728,35.794 74.918,36.136 73.928,36.136 Z M84.224,37.198 C85.556,37.198 86.636,36.748 87.464,35.866 C88.292,34.984 88.706,33.85 88.706,32.482 C88.706,31.114 88.292,29.98 87.464,29.098 C86.636,28.216 85.556,27.766 84.224,27.766 C82.892,27.766 81.812,28.216 80.966,29.098 C80.138,29.98 79.724,31.114 79.724,32.482 C79.724,33.85 80.138,34.984 80.966,35.866 C81.812,36.748 82.892,37.198 84.224,37.198 Z M84.242,36.136 C83.234,36.136 82.424,35.794 81.794,35.11 C81.182,34.408 80.876,33.544 80.876,32.482 C80.876,31.42 81.182,30.556 81.794,29.872 C82.424,29.17 83.234,28.828 84.242,28.828 C85.232,28.828 86.042,29.17 86.636,29.872 C87.248,30.556 87.554,31.42 87.554,32.482 C87.554,33.544 87.248,34.408 86.636,35.11 C86.042,35.794 85.232,36.136 84.242,36.136 Z M94.178,41.068 C96.464,41.068 97.814,39.97 97.814,38.152 C97.814,36.658 96.896,35.722 95.024,35.722 L92.522,35.722 C91.73,35.722 91.19,35.362 91.19,34.66 C91.19,34.228 91.37,33.868 91.712,33.58 C92.306,33.994 93.026,34.192 93.836,34.192 C94.862,34.192 95.672,33.886 96.284,33.274 C96.896,32.662 97.202,31.906 97.202,30.988 C97.202,30.214 96.986,29.548 96.572,28.99 L98.318,28.99 L98.318,27.964 L95.114,27.964 C94.718,27.838 94.286,27.766 93.836,27.766 C91.748,27.766 90.434,29.098 90.434,30.988 C90.434,31.726 90.632,32.374 91.028,32.896 C90.398,33.364 90.074,33.958 90.074,34.696 C90.074,35.578 90.614,36.244 91.334,36.532 C90.65,36.874 90.308,37.468 90.308,38.314 C90.308,40.096 91.676,41.068 94.178,41.068 Z M93.818,33.166 C92.45,33.166 91.568,32.266 91.568,30.988 C91.568,29.674 92.432,28.792 93.818,28.792 C95.204,28.792 96.086,29.674 96.086,30.988 C96.086,32.266 95.204,33.166 93.818,33.166 Z M94.178,40.042 C92.36,40.042 91.442,39.448 91.442,38.278 C91.442,37.324 92.108,36.766 92.954,36.748 L94.88,36.748 C96.014,36.748 96.68,37.252 96.68,38.17 C96.68,39.412 95.852,40.042 94.178,40.042 Z M100.82,37 L100.82,23.86 L99.686,23.86 L99.686,37 L100.82,37 Z M107.246,37.198 C109.262,37.198 110.648,36.19 111.206,34.444 L110.036,34.444 C109.604,35.578 108.686,36.136 107.264,36.136 C105.518,36.136 104.222,34.876 104.132,32.914 L111.314,32.914 L111.314,32.284 C111.314,29.404 109.676,27.766 107.21,27.766 C105.932,27.766 104.906,28.216 104.132,29.098 C103.358,29.98 102.98,31.114 102.98,32.5 C102.98,33.904 103.376,35.038 104.168,35.902 C104.978,36.766 106.004,37.198 107.246,37.198 Z M110.162,31.888 L104.132,31.888 C104.276,30.088 105.482,28.828 107.21,28.828 C109.01,28.828 110.162,29.998 110.162,31.888 Z M113.582,39.34 C114.302,38.548 114.806,37.36 114.806,36.334 C114.878,35.452 113.762,35.038 113.222,35.614 C112.682,36.136 113.06,37.144 113.834,37.144 C113.744,37.9 113.51,38.584 113.168,39.178 L113.582,39.34 Z M124.328,37.198 C126.272,37.198 127.766,36.19 128.27,34.39 L127.1,34.39 C126.722,35.47 125.66,36.136 124.364,36.136 C123.446,36.136 122.69,35.794 122.078,35.092 C121.484,34.39 121.178,33.526 121.178,32.5 C121.178,31.438 121.484,30.574 122.078,29.872 C122.672,29.17 123.428,28.828 124.346,28.828 C125.642,28.828 126.722,29.476 127.1,30.574 L128.27,30.574 C127.784,28.774 126.29,27.766 124.328,27.766 C123.086,27.766 122.042,28.216 121.232,29.116 C120.422,29.998 120.026,31.132 120.026,32.5 C120.026,33.85 120.422,34.966 121.232,35.866 C122.042,36.748 123.086,37.198 124.328,37.198 Z M132.446,37.198 C133.76,37.198 134.822,36.55 135.308,35.686 L135.344,37 L136.424,37 L136.424,30.97 C136.424,28.936 135.326,27.766 133.328,27.766 C132.374,27.766 131.618,28.054 131.024,28.63 C130.448,29.188 130.16,29.908 130.142,30.772 L131.276,30.772 C131.276,29.494 132.122,28.828 133.328,28.828 C134.624,28.828 135.272,29.548 135.272,31.006 L135.272,31.6 L132.338,32.212 C130.7,32.554 129.89,33.4 129.89,34.786 C129.89,36.226 130.88,37.198 132.446,37.198 Z M132.59,36.136 C131.6,36.136 131.042,35.632 131.042,34.768 C131.042,33.85 131.564,33.454 132.554,33.22 L135.272,32.626 L135.272,33.382 C135.272,34.048 135.074,34.642 134.678,35.164 C134.156,35.812 133.454,36.136 132.59,36.136 Z M140.348,37 L140.348,23.86 L139.214,23.86 L139.214,37 L140.348,37 Z M144.488,37 L144.488,23.86 L143.354,23.86 L143.354,37 L144.488,37 Z M152.444,37 L152.444,24.4 L151.256,24.4 L151.256,37 L152.444,37 Z M159.932,26.758 C161.084,26.758 161.678,25.894 161.678,24.598 L160.814,24.598 C160.814,25.408 160.544,25.822 159.986,25.822 C159.14,25.822 159.122,24.436 157.736,24.436 C156.566,24.436 155.972,25.282 155.972,26.596 L156.836,26.596 C156.836,25.768 157.106,25.354 157.664,25.354 C158.51,25.354 158.51,26.758 159.932,26.758 Z M156.404,27.964 L155.36,27.964 L155.36,37 L156.494,37 L156.494,31.978 C156.494,30.088 157.484,28.864 158.87,28.864 C160.112,28.864 160.868,29.71 160.868,31.276 L160.868,37 L162.002,37 L162.002,31.168 C162.002,29.134 160.94,27.766 159.05,27.766 C157.894,27.766 156.930667,28.4082222 156.523926,29.1922685 L156.458,29.331 L156.404,27.964 Z M166.754,37.198 C168.068,37.198 169.13,36.55 169.616,35.686 L169.652,37 L170.732,37 L170.732,30.97 C170.732,28.936 169.634,27.766 167.636,27.766 C166.682,27.766 165.926,28.054 165.332,28.63 C164.756,29.188 164.468,29.908 164.45,30.772 L165.584,30.772 C165.584,29.494 166.43,28.828 167.636,28.828 C168.932,28.828 169.58,29.548 169.58,31.006 L169.58,31.6 L166.646,32.212 C165.008,32.554 164.198,33.4 164.198,34.786 C164.198,36.226 165.188,37.198 166.754,37.198 Z M166.898,36.136 C165.908,36.136 165.35,35.632 165.35,34.768 C165.35,33.85 165.872,33.454 166.862,33.22 L169.58,32.626 L169.58,33.382 C169.58,34.048 169.382,34.642 168.986,35.164 C168.464,35.812 167.762,36.136 166.898,36.136 Z M174.728,37 L174.728,34.156 L176.06,32.554 L179.084,37 L180.398,37 L176.852,31.672 L179.93,27.964 L178.508,27.964 L174.728,32.5 L174.728,23.86 L173.594,23.86 L173.594,37 L174.728,37 Z M182.702,25.966 C183.188,25.966 183.584,25.588 183.584,25.102 C183.584,24.616 183.188,24.22 182.702,24.22 C182.198,24.22 181.82,24.616 181.82,25.102 C181.82,25.588 182.198,25.966 182.702,25.966 Z M183.26,37 L183.26,27.964 L182.126,27.964 L182.126,37 L183.26,37 Z M186.482,37.198 C187.004,37.198 187.436,36.766 187.436,36.244 C187.508,35.398 186.356,34.93 185.78,35.56 C185.186,36.154 185.636,37.198 186.482,37.198 Z M190.046,37.198 C190.604,37.198 191.018,36.766 191.018,36.244 C191.018,35.686 190.604,35.272 190.046,35.272 C189.488,35.272 189.074,35.686 189.074,36.244 C189.074,36.766 189.488,37.198 190.046,37.198 Z M193.628,37.198 C194.186,37.198 194.582,36.766 194.582,36.244 C194.582,35.686 194.186,35.272 193.628,35.272 C193.07,35.272 192.656,35.686 192.656,36.244 C192.656,36.802 193.07,37.198 193.628,37.198 Z" id="HeyGoogle,callIñaki…" fill="#111515" fill-rule="nonzero"></path>
                            </g>
                            <g id="Goggle-Assistant">
                                <circle id="Oval" fill="#FFFFFF" cx="33.8114696" cy="33.8114696" r="33.8114696"></circle>
                                <g id="Logo" transform="translate(16.493400, 17.463601)" fill-rule="nonzero">
                                    <circle id="Oval" fill="#4285F4" cx="10.283788" cy="10.3125463" r="10.283788"></circle>
                                    <path d="M33.6940348,11.3157994 C33.6940348,12.4703465 32.7579724,13.4060141 31.6038201,13.4060141 C30.4496678,13.4060141 29.5136054,12.4703465 29.5136054,11.3157994 C29.5136054,10.161318 30.4496678,9.22558467 31.6038201,9.22558467 C32.7579724,9.22558467 33.6940348,10.161318 33.6940348,11.3157994 Z" id="Path" fill="#34A853"></path>
                                    <path d="M29.9316878,16.4159049 C29.9316878,18.7245385 28.0602211,20.5962027 25.7513242,20.5962027 C23.4422299,20.5962027 21.5708948,18.7245385 21.5708948,16.4159049 C21.5708948,14.1071396 23.4422957,12.2354754 25.7513242,12.2354754 C28.0602869,12.2354754 29.9316878,14.1072054 29.9316878,16.4159049 Z" id="Path" fill="#EA4335"></path>
                                    <path d="M30.767721,27.2012864 C30.767721,29.9718311 28.5220663,32.2175517 25.7512584,32.2175517 C22.9804505,32.2175517 20.7347299,29.9718311 20.7347299,27.2012864 C20.7347299,24.4308734 22.9803847,22.1848896 25.7512584,22.1848896 C28.5220663,22.1848896 30.767721,24.4308734 30.767721,27.2012864 Z" id="Path" fill="#FBBC05"></path>
                                </g>
                            </g>
                        </g>
                    </g>
                </g>
            </g>
        </g>
    </g>
</svg>