<svg width="114" height="18" xmlns="http://www.w3.org/2000/svg"><path d="M62.02 4.226c.766 0 1.417.106 1.962.32.545.213.993.483 1.344.808.355.326.622.688.81 1.085.184.397.311.779.38 1.146l-2.464.711h-.023a2.3 2.3 0 00-.149-.489 1.525 1.525 0 00-.347-.515c-.144-.16-.361-.296-.607-.409-.246-.113-.564-.169-.94-.169-.506 0-.91.14-1.214.418-.304.278-.457.59-.457.933 0 .308.095.566.286.773.194.208.503.353.931.436l1.649.32c.59.106 1.104.281 1.544.524.442.243.81.53 1.113.862.301.332.527.702.677 1.111.152.409.227.839.227 1.289 0 .498-.101.983-.295 1.457-.2.474-.492.898-.88 1.271a4.53 4.53 0 01-1.43.907c-.569.23-1.215.346-1.945.346-.858 0-1.591-.127-2.206-.382-.615-.254-1.124-.577-1.53-.968a4.073 4.073 0 01-.916-1.298 4.623 4.623 0 01-.382-1.386l2.516-.623c.022.285.087.56.198.827.109.267.268.498.477.693.207.196.467.353.781.471.311.119.675.178 1.092.178.544 0 .969-.122 1.275-.364.307-.243.46-.56.46-.951 0-.32-.119-.59-.356-.81-.238-.218-.56-.37-.964-.452l-1.677-.32c-1.056-.202-1.876-.634-2.466-1.298-.59-.664-.885-1.463-.885-2.4 0-.592.12-1.137.358-1.635.235-.498.556-.924.961-1.28a4.603 4.603 0 011.403-.835 4.756 4.756 0 011.688-.302zm13.074 0c.867 0 1.686.154 2.455.462.77.308 1.446.75 2.03 1.324a6.307 6.307 0 011.388 2.08c.341.812.512 1.715.512 2.71 0 .996-.17 1.896-.512 2.702a6.33 6.33 0 01-1.388 2.071 6.097 6.097 0 01-2.03 1.324 6.541 6.541 0 01-2.455.462 6.608 6.608 0 01-2.464-.462 6.076 6.076 0 01-2.039-1.324 6.33 6.33 0 01-1.388-2.07c-.341-.807-.512-1.707-.512-2.703 0-.995.17-1.898.512-2.71a6.307 6.307 0 011.388-2.08 6.076 6.076 0 012.039-1.324 6.608 6.608 0 012.464-.462zm-71.54.266v12.603H.778V4.492h2.776zm6.728 0l4.616 7.661v-7.66h2.741v12.602h-2.897L9.675 8.812v8.283H6.952V4.492h3.33zm17.294 0l4.58 12.603h-2.984l-.885-2.56h-4.754l-.885 2.56h-2.88L24.4 4.492h3.175zm9.47 0V9.79l4.493-5.297h3.61l-4.79 5.457 4.807 7.146h-3.419l-3.314-4.96-1.388 1.583v3.377h-2.741V4.492h2.741zm12.885 0v12.603h-2.776V4.492h2.776zm39.107 0c.603 0 1.15.101 1.641.303.492.201.911.48 1.258.835s.616.773.807 1.253c.191.48.287.998.287 1.555 0 .854-.203 1.591-.637 2.213-.419.623-1.026 1.07-1.778 1.342l2.485 5.102H90.08l-2.202-4.693h-.971v4.693h-2.74V4.492h4.872zm9.522 0v12.603h-2.776V4.492h2.776zm9.938 0l4.58 12.603h-2.984l-.885-2.56h-4.754l-.885 2.56h-2.88l4.632-12.603h3.176zM75.094 6.963c-.428 0-.853.077-1.276.231a3.471 3.471 0 00-1.145.693 3.356 3.356 0 00-.824 1.191c-.208.486-.312 1.055-.312 1.707 0 .663.104 1.232.312 1.706.208.474.483.868.824 1.182.341.314.723.545 1.145.693a3.83 3.83 0 001.276.223 3.83 3.83 0 001.275-.223c.422-.148.801-.379 1.136-.693.336-.314.608-.708.816-1.182.208-.474.312-1.043.312-1.706 0-.652-.104-1.22-.312-1.707a3.414 3.414 0 00-.816-1.19 3.376 3.376 0 00-1.136-.694 3.697 3.697 0 00-1.275-.23zm-49.15.658l-1.509 4.355h2.985L25.945 7.62zm80.923 0l-1.51 4.355h2.985l-1.475-4.355zm-18.333-.693h-1.62v3.057h1.604c.568 0 .997-.142 1.294-.427.295-.284.442-.652.442-1.102 0-.474-.144-.847-.433-1.12-.29-.272-.723-.408-1.287-.408zM15.295.357v2.222H9.512V.357h5.783z" fill="#111515" fill-rule="nonzero"/></svg>